<!DOCTYPE svg PUBLIC "-//W3C//DTD SVG 20010904//EN" "http://www.w3.org/TR/2001/REC-SVG-20010904/DTD/svg10.dtd">
<svg version="1.0" xmlns="http://www.w3.org/2000/svg" width="1024px" height="1024px" viewBox="0 0 10240 10240" preserveAspectRatio="xMidYMid meet">
<g id="layer101" fill="#98022e" stroke="none">
 <path d="M0 5120 l0 -5120 5120 0 5120 0 0 5120 0 5120 -5120 0 -5120 0 0 -5120z"/>
 </g>
<g id="layer102" fill="#f0b310" stroke="none">
 <path d="M0 5120 l0 -5120 5120 0 5120 0 0 5120 0 5120 -5120 0 -5120 0 0 -5120z m3856 1485 c207 -34 464 -127 738 -268 427 -220 886 -576 1239 -962 304 -332 488 -607 538 -803 23 -90 24 -133 5 -196 -21 -69 -58 -111 -129 -145 -191 -92 -517 -48 -931 126 -195 82 -430 204 -556 288 -93 62 -111 71 -107 52 3 -12 9 -39 13 -60 12 -71 -25 -41 -104 83 -137 216 -139 213 89 121 199 -80 219 -98 112 -103 l-68 -3 65 -39 c209 -125 501 -256 675 -301 199 -51 444 -59 553 -17 228 88 216 297 -40 682 -212 319 -463 582 -843 884 -251 200 -581 386 -875 493 -344 125 -707 130 -829 11 -45 -44 -60 -78 -67 -145 -11 -115 48 -271 176 -467 39 -59 69 -111 65 -114 -8 -9 -128 119 -195 209 -65 87 -141 230 -164 308 -20 69 -21 171 0 219 38 92 115 135 294 166 43 8 253 -4 346 -19z m-2396 -1761 c81 -38 148 -105 189 -188 43 -89 42 -96 -19 -96 -50 0 -50 0 -75 50 -35 68 -75 111 -135 144 -100 55 -225 45 -304 -25 -63 -56 -81 -109 -81 -234 2 -271 155 -466 369 -469 123 -2 206 58 222 162 4 23 11 45 16 48 5 3 30 3 55 -1 l46 -7 -6 -50 c-7 -57 -36 -120 -74 -160 -38 -40 -130 -77 -209 -84 -141 -13 -258 30 -358 130 -216 216 -234 624 -35 762 62 42 113 54 229 51 93 -2 112 -6 170 -33z m772 -8 c32 -15 78 -47 102 -72 47 -46 59 -54 50 -29 -9 23 16 84 42 102 18 11 40 14 84 11 33 -2 61 -6 63 -9 2 -2 7 -24 11 -48 6 -42 6 -43 -18 -37 -14 3 -36 2 -50 -4 -35 -13 -34 -35 14 -270 60 -285 60 -287 60 -352 0 -69 -17 -107 -63 -142 -62 -47 -112 -59 -242 -60 -100 0 -129 4 -176 22 -100 40 -174 125 -197 230 l-10 42 54 0 c43 0 56 -4 60 -17 39 -134 151 -203 309 -191 74 6 120 28 140 68 20 39 19 127 -3 169 -27 53 -69 69 -222 81 -133 11 -255 36 -311 65 -94 49 -139 122 -139 225 0 126 54 203 170 241 14 5 68 7 120 6 80 -3 104 -8 152 -31z m974 -6 c72 -25 136 -76 167 -134 16 -31 21 -59 22 -112 0 -121 -50 -173 -238 -246 -201 -78 -242 -110 -242 -187 0 -93 65 -141 202 -149 70 -4 88 -1 127 18 57 27 87 68 94 126 l5 44 55 0 55 0 -6 -54 c-16 -156 -135 -235 -334 -224 -150 9 -242 59 -289 154 -23 46 -26 63 -21 110 11 110 65 158 263 235 71 28 144 62 162 75 92 71 79 184 -28 244 -40 22 -57 25 -145 25 -91 0 -104 -3 -146 -27 -55 -32 -75 -60 -93 -130 l-13 -53 -49 0 c-46 0 -49 2 -52 28 -6 48 26 135 65 178 92 102 275 135 439 79z m425 -19 c4 -3 28 -112 53 -241 56 -277 74 -339 125 -418 70 -108 162 -165 266 -165 108 -1 174 51 182 142 4 37 -74 463 -122 669 -5 22 -4 23 52 20 l57 -3 62 -310 c82 -407 82 -461 0 -541 -51 -49 -110 -67 -212 -67 -93 1 -177 38 -247 108 -26 27 -49 46 -52 43 -3 -3 15 -103 40 -223 25 -121 45 -225 45 -232 0 -9 -16 -13 -53 -13 l-54 0 -92 458 c-51 251 -108 529 -126 617 -18 88 -31 163 -28 167 4 8 95 -1 104 -11z"/>
 <path d="M2012 4766 c-76 -25 -112 -73 -112 -151 0 -83 50 -142 143 -170 29 -9 114 -22 190 -30 76 -9 154 -22 173 -30 42 -17 41 -18 14 100 -24 103 -48 152 -97 201 -75 75 -216 111 -311 80z"/>
 </g>
<g id="layer103" fill="#ffffff" stroke="none">
 <path d="M810 5922 c-177 -46 -270 -163 -278 -350 -5 -113 10 -195 52 -287 81 -175 241 -280 442 -292 222 -14 380 75 429 240 8 28 15 63 15 79 l0 28 -144 0 -143 0 -7 -39 c-11 -72 -97 -115 -181 -92 -57 15 -101 55 -131 118 -23 49 -28 75 -32 165 -4 96 -2 111 18 153 30 63 78 85 153 74 43 -7 58 -15 89 -49 20 -23 40 -54 43 -71 l7 -29 145 0 145 0 -7 33 c-13 65 -64 157 -115 207 -114 114 -317 160 -500 112z"/>
 <path d="M1815 5927 c-128 -33 -226 -112 -266 -214 -34 -86 -33 -258 3 -364 78 -237 279 -370 538 -356 172 9 285 74 350 201 32 64 35 77 39 175 4 125 -9 190 -54 286 -58 122 -150 206 -280 255 -74 28 -252 37 -330 17z m236 -227 c48 -25 85 -73 108 -141 77 -224 -15 -405 -174 -344 -91 34 -153 146 -162 292 -6 89 10 155 45 185 43 38 117 41 183 8z"/>
 <path d="M4815 5926 c-206 -55 -301 -189 -290 -410 15 -313 229 -525 530 -526 178 0 320 79 381 213 23 52 29 79 32 164 2 57 1 119 -2 138 l-7 35 -324 0 -325 0 0 45 c0 106 63 161 175 152 74 -5 120 -27 140 -67 l16 -30 139 0 c128 0 140 2 140 18 0 29 -237 240 -295 263 -46 17 -251 21 -310 5z m365 -598 c0 -49 -26 -98 -65 -124 -19 -12 -41 -15 -89 -12 -90 5 -141 45 -181 141 l-15 37 175 0 175 0 0 -42z"/>
 <path d="M7330 5929 c-123 -24 -239 -118 -281 -227 -26 -68 -31 -214 -10 -302 22 -94 79 -196 143 -260 195 -191 534 -203 698 -23 73 80 93 142 93 284 0 64 -3 121 -7 127 -5 9 -96 12 -333 12 l-326 0 6 56 c10 101 62 146 162 142 80 -2 111 -15 147 -60 l30 -38 133 0 c74 0 136 4 139 9 10 16 -45 109 -94 158 -57 57 -131 96 -222 118 -68 16 -206 18 -278 4z m357 -604 c-14 -96 -56 -135 -149 -135 -74 0 -124 31 -165 100 -18 30 -33 60 -33 67 0 10 39 13 176 13 l177 0 -6 -45z"/>
 <path d="M9013 5925 c-146 -40 -209 -112 -237 -272 l-5 -33 139 0 c134 0 140 1 140 20 0 36 29 80 63 94 38 16 132 15 165 -3 60 -32 66 -108 11 -137 -17 -8 -74 -26 -127 -39 -183 -45 -236 -74 -273 -146 -67 -131 -6 -295 135 -364 115 -56 335 -71 463 -31 107 34 173 110 181 213 l4 53 -136 0 -136 0 0 -29 c0 -45 -49 -81 -108 -81 -94 0 -155 58 -119 114 17 26 35 32 235 87 159 43 212 103 212 240 0 135 -42 211 -149 268 -34 18 -94 38 -137 46 -95 19 -252 18 -321 0z"/>
 <path d="M6608 5919 c-80 -9 -140 -39 -164 -84 -25 -48 -14 -159 40 -413 25 -117 46 -215 46 -217 0 -3 -33 -5 -74 -5 l-74 0 14 -67 c26 -125 15 -113 99 -113 69 0 75 -2 80 -22 20 -90 55 -251 55 -254 0 -2 65 -4 145 -4 131 0 145 2 145 18 0 9 -11 69 -24 132 -13 63 -21 118 -19 123 2 4 42 7 89 7 46 0 84 3 84 8 0 4 -7 44 -16 90 l-17 82 -93 0 -92 0 -10 48 c-6 26 -27 129 -48 230 -35 176 -36 183 -19 202 15 17 31 20 92 20 52 0 73 4 72 13 -1 37 -36 188 -44 195 -14 13 -188 20 -267 11z"/>
 <path d="M2520 5913 c0 -5 41 -207 92 -450 l92 -443 147 0 147 0 -9 37 c-4 21 -6 39 -4 41 2 2 27 -12 55 -32 66 -45 164 -76 245 -76 113 0 196 44 236 127 39 79 32 169 -40 477 -33 143 -58 263 -56 266 3 4 -6 19 -20 34 -24 26 -27 26 -155 26 -111 0 -130 -2 -130 -16 0 -8 21 -111 46 -227 66 -302 74 -352 62 -393 -23 -83 -145 -97 -229 -26 -50 41 -74 111 -129 373 -28 134 -54 254 -57 267 -5 22 -8 22 -149 22 -79 0 -144 -3 -144 -7z"/>
 <path d="M3769 5918 c-1 -2 -27 -204 -58 -450 l-56 -448 146 0 146 0 6 58 c4 31 12 163 18 292 7 129 15 242 20 250 5 10 18 -9 44 -65 20 -44 84 -182 142 -307 l107 -228 153 0 153 0 -26 52 c-32 63 -260 487 -374 696 l-84 152 -168 0 c-92 0 -168 -1 -169 -2z"/>
 <path d="M5520 5901 c0 -11 11 -72 25 -137 l26 -118 137 -141 c144 -147 277 -298 377 -427 54 -71 63 -78 102 -84 42 -6 139 -1 148 7 2 3 -5 43 -15 89 -10 47 -22 100 -25 119 -8 48 -13 53 -46 46 -17 -4 -61 -7 -99 -7 -113 0 -182 45 -224 147 -9 21 -39 144 -67 273 -28 130 -53 240 -55 244 -3 4 -68 8 -145 8 -130 0 -139 -1 -139 -19z"/>
 <path d="M8020 5912 c0 -8 141 -703 170 -839 l11 -53 145 0 c79 0 144 3 144 8 0 4 -7 31 -14 60 -8 28 -13 52 -12 52 1 0 27 -24 57 -54 68 -65 142 -96 232 -96 94 0 93 -3 61 144 l-28 127 -34 -6 c-19 -3 -65 -6 -103 -6 -81 0 -132 22 -178 78 -40 49 -61 116 -112 363 -24 113 -47 211 -52 218 -11 14 -287 18 -287 4z"/>
 <path d="M5610 5468 c0 -18 89 -440 94 -445 2 -2 63 -2 136 -1 l132 3 -52 77 c-59 88 -244 321 -284 357 -19 18 -26 21 -26 9z"/>
 </g>

</svg>